# xmcd CD database file
#
# Track frame offsets:
#	150
#	18670
#	45052
#	63702
#	81405
#	105595
#	124035
#	148677
#	157750
#	179375
#	204462
#
# Disc length: 3006 seconds
#
# Revision: 2
# Processed by: cddbd v1.5.2PL0 Copyright (c) Steve Scherf et al.
# Submitted via: CDex 1.70beta2
#
DISCID=8e0bbc0b
DTITLE=ビギン - My Home Town
DYEAR=1993
DGENRE=
TTITLE0=誰かが君を呼ぶ声が [Album Version]
TTITLE1=Ring Ring
TTITLE2=Moon Beach
TTITLE3=Zydeco De Do
TTITLE4=僕の赤い扉
TTITLE5=Trust Me [Album Version]
TTITLE6=青い瞳のステラ、1962年 夏…
TTITLE7=One Day At A Time
TTITLE8=君と夕日を見送って
TTITLE9=Nashville
TTITLE10=Lonely Night
EXTD=YEAR: 1993
EXTT0=
EXTT1=
EXTT2=
EXTT3=
EXTT4=
EXTT5=
EXTT6=
EXTT7=
EXTT8=
EXTT9=
EXTT10=
PLAYORDER=
